# xmcd
#
# Track frame offsets:
#	150
#	15548
#	32641
#	49999
#	64484
#	77128
#	89423
#	110780
#	124158
#	135615
#	149647
#	157350
#	171433
#	187644
#	201594
#	219670
#	235539
#	247819
#	260198
#	268980
#
# Disc length: 3714 seconds
#
# Revision: 1
# Processed by: cddbd v1.5.2PL0 Copyright (c) Steve Scherf et al.
# Submitted via: audiograbber 1.83.01
#
DISCID=3b0e8014
DTITLE=Various Artist - Greatest Ever! Country - CD1
DYEAR=2017
DGENRE=Country
TTITLE0=Billy Ray Cyrus - Achy Breaky Heart
TTITLE1=Wonderland - Need You Now
TTITLE2=John Mellencamp - Paper In Fire
TTITLE3=Jeannie C. Riley - Harper Valley P.T.A.
TTITLE4=Hank Williams - I'm So Lonesome I Could Cry
TTITLE5=Patsy Cline feat. The Jordanaires - Crazy
TTITLE6=Lucinda Williams - Car Wheels On A Gravel Road
TTITLE7=Dylan Scott - Lay It On Me
TTITLE8=Travis Tritt - Here's A Quarter (Call someone Who Cares)
TTITLE9=Jerry Lee Lewis - Cold Cold Heart
TTITLE10=Johnny Cash - Hey, Good Lookin'
TTITLE11=Rita Remington - Angel Of The Morning
TTITLE12=Jana Kramer - Whiskey
TTITLE13=Joe Nichols - Tequila Makes Her Clothes Fall Off
TTITLE14=Lee Ann Womack - I Hope You Dance
TTITLE15=Maria Muldaur - My Tennessee Mountain Home
TTITLE16=Charlie Rich - Closed For Repair
TTITLE17=Randy Travis - Dreamin'
TTITLE18=Scott Walker - The Lady Came From Baltimore
TTITLE19=Tomm T. Hall - Country Is
EXTD=
EXTT0=
EXTT1=
EXTT2=
EXTT3=
EXTT4=
EXTT5=
EXTT6=
EXTT7=
EXTT8=
EXTT9=
EXTT10=
EXTT11=
EXTT12=
EXTT13=
EXTT14=
EXTT15=
EXTT16=
EXTT17=
EXTT18=
EXTT19=
PLAYORDER=
